<svg width="59" height="63" viewBox="0 0 59 63" fill="none" xmlns="http://www.w3.org/2000/svg">
<path d="M18.3401 39.8624L17.9701 36.6825C17.9301 36.3725 17.7701 36.2524 17.4501 36.2424C15.5601 36.1524 13.66 36.1025 11.77 35.9325C9.30002 35.7225 6.85004 35.3425 4.54004 34.3825C3.44004 33.9225 2.44999 33.3124 1.60999 32.4624C0.359985 31.2024 0 29.6225 0 27.9325C0.01 24.5125 0.770093 21.2425 1.97009 18.0625C3.47009 14.0925 5.63002 10.5225 8.65002 7.51246C12.32 3.84246 16.7301 1.56252 21.8201 0.572519C24.7101 0.0125189 27.62 -0.127564 30.55 0.112436C37.19 0.652436 43.1201 2.94252 48.0901 7.45252C53.0001 11.9025 56.16 17.3924 57.61 23.8524C57.95 25.3624 58.1 26.9024 57.98 28.4724C57.8 30.8524 56.5001 32.4525 54.5601 33.6325C53.0901 34.5325 51.44 34.9725 49.75 35.1425C47.27 35.4025 44.77 35.5524 42.28 35.7524C41.66 35.8024 41.0401 35.8724 40.4301 35.9724C40.2901 35.9924 40.0701 36.1825 40.0601 36.3025C39.9201 37.5425 39.7 38.8025 39.73 40.0425C39.84 44.7125 40.8401 49.2424 41.9701 53.7524C42.3301 55.1924 42.4 56.6624 41.89 58.0924C41.17 60.1124 39.58 61.1824 37.65 61.8324C36.21 62.3224 34.7101 62.5425 33.1901 62.6325C31.6101 62.7225 30.0201 62.8325 28.4401 62.8125C25.6201 62.7825 22.8401 62.4824 20.2101 61.3624C19.0701 60.8724 18.03 60.2325 17.23 59.2725C15.92 57.7125 15.72 55.9225 16.23 54.0225C17.03 51.0225 17.5801 47.9825 17.9301 44.9125C18.1301 43.3025 18.2101 41.6724 18.3401 39.8624ZM33.9301 26.6425C34.2201 26.6025 34.56 26.5825 34.89 26.5225C37.66 26.0225 38.86 23.1724 37.28 20.8724C36 19.0024 33.33 18.1824 31.23 18.9924C29.01 19.8524 28.2 22.2525 29.49 24.2625C30.51 25.8325 32.0401 26.5225 33.9301 26.6425ZM22.99 26.3825C22.97 25.2125 22.6601 24.1325 21.9301 23.1925C20.3101 21.0825 17.4601 21.2324 16.0601 23.4924C14.9101 25.3524 15.1301 27.9325 16.5801 29.5625C18.1601 31.3325 20.6801 31.2025 22.0701 29.2825C22.6901 28.4225 22.96 27.4525 22.99 26.3825ZM50.8501 24.7525C50.8101 24.7425 50.7601 24.7324 50.7201 24.7124C50.7001 24.4224 50.71 24.1224 50.67 23.8324C50.5 22.5024 50.1501 21.2324 49.1801 20.2424C48.2101 19.2424 47.03 19.3624 46.36 20.5924C46.03 21.1924 45.8101 21.8925 45.7201 22.5725C45.5001 24.4225 45.7901 26.1925 46.9701 27.7025C48.0301 29.0525 49.47 28.8925 50.16 27.3125C50.51 26.5125 50.6301 25.6125 50.8501 24.7525ZM16.1801 10.2224C16.1901 10.3324 16.1901 10.5324 16.2101 10.7224C16.3801 12.4124 17.9 13.4324 19.52 12.9624C21.52 12.3724 22.8501 9.84243 22.2101 7.85243C21.7901 6.53243 20.7001 5.87242 19.3301 6.09242C17.6501 6.37242 16.2101 8.21242 16.1801 10.2224ZM10.7201 18.2124C10.7301 17.4524 10.6301 16.7125 10.2201 16.0425C9.74009 15.2725 8.96007 15.0525 8.20007 15.5425C7.80007 15.8025 7.42001 16.1525 7.14001 16.5425C6.13001 17.9325 5.76004 19.5224 5.92004 21.2224C5.97004 21.6924 6.14 22.1824 6.37 22.6024C6.81999 23.4424 7.67007 23.6625 8.45007 23.1325C8.87007 22.8425 9.26005 22.4525 9.55005 22.0425C10.36 20.9025 10.7001 19.6024 10.7201 18.2124ZM40.8501 10.0824C41.1401 10.0524 41.46 10.0524 41.75 9.98243C42.55 9.78243 42.8501 9.19241 42.4601 8.46241C42.2601 8.08241 41.97 7.72249 41.66 7.42249C40.5867 6.40463 39.2494 5.70824 37.8 5.41248C37.16 5.28248 36.4701 5.24252 35.8201 5.32252C34.9601 5.42252 34.6701 6.11246 35.0801 6.88246C35.2501 7.19246 35.4601 7.49244 35.7201 7.74244C37.1501 9.11244 38.8601 9.87241 40.8501 10.0824ZM27.17 14.0725C28.24 14.0725 29.17 13.1425 29.16 12.0625C29.16 11.1925 28.51 10.5325 27.65 10.5225C26.62 10.5025 25.63 11.4725 25.62 12.5225C25.63 13.4225 26.27 14.0725 27.17 14.0725ZM42.0801 13.2124C42.1701 14.3824 42.54 15.1825 43.36 15.7025C43.61 15.8625 44.08 15.9624 44.3 15.8324C44.55 15.6924 44.76 15.2625 44.76 14.9525C44.77 14.0025 44.3401 13.2125 43.5701 12.6525C43.2801 12.4425 42.9001 12.2224 42.5801 12.4924C42.3101 12.6924 42.1801 13.0524 42.0801 13.2124Z" fill="url(#paint0_linear_14_16)"/>
<defs>
<linearGradient id="paint0_linear_14_16" x1="29.0105" y1="0" x2="29.0105" y2="62.8149" gradientUnits="userSpaceOnUse">
<stop stop-color="#F24A4A"/>
<stop offset="0.583233" stop-color="#F24A4A"/>
<stop offset="0.583333" stop-color="#FFDCBD"/>
</linearGradient>
</defs>
</svg>
