<svg width="51" height="55" viewBox="0 0 51 55" fill="none" xmlns="http://www.w3.org/2000/svg">
<path d="M16.1069 34.9031L15.7819 32.1188C15.7468 31.8473 15.6063 31.7422 15.3252 31.7335C13.6654 31.6547 11.9967 31.6109 10.3368 31.4621C8.16759 31.2782 6.01593 30.9454 3.98721 30.1049C3.02116 29.7021 2.15166 29.168 1.41394 28.4237C0.316151 27.3205 0 25.9371 0 24.4574C0.00878233 21.4629 0.676321 18.5997 1.7302 15.8153C3.04755 12.3392 4.94447 9.21335 7.59674 6.57782C10.8199 3.36441 14.6929 1.36812 19.1631 0.501291C21.7012 0.0109614 24.2568 -0.111694 26.8301 0.0984476C32.6615 0.571265 37.8695 2.57644 42.2343 6.52534C46.5464 10.4217 49.3216 15.2286 50.595 20.8849C50.8936 22.2071 51.0253 23.5555 50.9199 24.9301C50.7619 27.014 49.6202 28.415 47.9165 29.4482C46.6254 30.2362 45.1763 30.6215 43.6921 30.7703C41.5141 30.998 39.3185 31.1293 37.1317 31.3044C36.5872 31.3482 36.0427 31.4095 35.507 31.497C35.3841 31.5146 35.1908 31.681 35.1821 31.7861C35.0591 32.8718 34.8658 33.975 34.8922 35.0607C34.9888 39.1497 35.8671 43.1161 36.8595 47.065C37.1757 48.3259 37.2371 49.613 36.7892 50.8651C36.1569 52.6337 34.7605 53.5706 33.0655 54.1397C31.8008 54.5688 30.4835 54.7615 29.1486 54.8403C27.761 54.9191 26.3646 55.0154 24.977 54.9979C22.5004 54.9716 20.0589 54.7089 17.7492 53.7282C16.748 53.2992 15.8345 52.7389 15.1319 51.8983C13.9815 50.5324 13.8058 48.9651 14.2537 47.3015C14.9563 44.6747 15.4394 42.0129 15.7468 39.3249C15.9224 37.9152 15.9927 36.4879 16.1069 34.9031ZM29.7985 23.3278C30.0532 23.2928 30.3517 23.2753 30.6416 23.2228C33.0743 22.785 34.1282 20.2895 32.7406 18.2757C31.6164 16.6383 29.2715 15.9203 27.4272 16.6296C25.4775 17.3826 24.7662 19.484 25.8991 21.2439C26.7949 22.6186 28.1386 23.2228 29.7985 23.3278ZM20.1906 23.1002C20.173 22.0757 19.9008 21.1302 19.2597 20.3071C17.837 18.4596 15.334 18.5909 14.1045 20.5697C13.0945 22.1983 13.2877 24.4574 14.5612 25.8846C15.9488 27.4344 18.1619 27.3205 19.3827 25.6394C19.9272 24.8864 20.1642 24.0371 20.1906 23.1002ZM44.6582 21.673C44.6231 21.6642 44.5792 21.6554 44.5441 21.6379C44.5265 21.384 44.5352 21.1213 44.5001 20.8674C44.3508 19.7029 44.0434 18.5909 43.1916 17.7241C42.3397 16.8485 41.3033 16.9535 40.7149 18.0305C40.4251 18.5558 40.2319 19.1688 40.1529 19.7642C39.9597 21.3841 40.2144 22.9339 41.2507 24.256C42.1816 25.4381 43.4462 25.298 44.0522 23.9145C44.3596 23.2141 44.465 22.426 44.6582 21.673ZM14.2099 8.95064C14.2186 9.04695 14.2187 9.22207 14.2362 9.38843C14.3855 10.8682 15.7204 11.7613 17.1431 11.3497C18.8996 10.8331 20.0677 8.61792 19.5056 6.87549C19.1368 5.71972 18.1795 5.14182 16.9763 5.33445C15.5009 5.57962 14.2362 7.1907 14.2099 8.95064ZM9.41474 15.9466C9.42352 15.2811 9.3357 14.6333 8.97562 14.0466C8.55407 13.3724 7.86903 13.1798 7.20158 13.6088C6.85028 13.8365 6.5165 14.1429 6.2706 14.4844C5.38358 15.7015 5.05866 17.0936 5.19918 18.5821C5.24309 18.9936 5.39235 19.4227 5.59434 19.7904C5.98955 20.5259 6.73611 20.7186 7.42113 20.2545C7.78999 20.0006 8.13248 19.6591 8.38717 19.3002C9.09854 18.302 9.39718 17.1636 9.41474 15.9466ZM35.8759 8.82804C36.1306 8.80177 36.4115 8.80179 36.6662 8.7405C37.3688 8.56539 37.6324 8.04877 37.2898 7.40959C37.1142 7.07687 36.8595 6.76173 36.5872 6.49905C35.6446 5.60782 34.4701 4.99807 33.1973 4.73911C32.6352 4.62528 32.0292 4.59029 31.4584 4.66034C30.7031 4.7479 30.4484 5.352 30.8085 6.0262C30.9578 6.29763 31.1422 6.5603 31.3706 6.77919C32.6264 7.97875 34.1282 8.64417 35.8759 8.82804ZM23.8616 12.3217C24.8013 12.3217 25.6181 11.5074 25.6093 10.5618C25.6093 9.80003 25.0384 9.22211 24.2832 9.21336C23.3786 9.19584 22.5091 10.0452 22.5003 10.9645C22.5091 11.7526 23.0712 12.3217 23.8616 12.3217ZM36.9561 11.5686C37.0352 12.5931 37.36 13.2936 38.0802 13.749C38.2997 13.889 38.7126 13.9765 38.9058 13.8627C39.1253 13.7401 39.3097 13.3637 39.3097 13.0923C39.3185 12.2605 38.9409 11.5687 38.2647 11.0784C38.01 10.8945 37.6763 10.7018 37.3952 10.9382C37.1581 11.1134 37.0439 11.4285 36.9561 11.5686Z" fill="white"/>
</svg>
